<?xml version="1.0" encoding="UTF-8" standalone="no"?>
<svg width="261px" height="264px" viewBox="0 0 261 264" version="1.1" xmlns="http://www.w3.org/2000/svg" xmlns:xlink="http://www.w3.org/1999/xlink">
    <!-- Generator: Sketch 39.1 (31720) - http://www.bohemiancoding.com/sketch -->
    <title>noun_788855_cc</title>
    <desc>Created with Sketch.</desc>
    <defs></defs>
    <g id="Page-1" stroke="none" stroke-width="1" fill="none" fill-rule="evenodd">
        <g id="noun_788855_cc" fill="#FFFFFF">
            <g id="Group">
                <path d="M204.2,183.2 C209.2,182.8 213.2,178.6 213.2,173.5 C213.2,168.1 208.8,163.7 203.4,163.7 L194.3,163.7 L189,146.1 C186.6,137.9 178.1,131.5 169.6,131.1 L94,131.1 C85.5,131.5 77.1,137.9 74.6,146.1 L69.3,163.7 L60.2,163.7 C54.8,163.7 50.4,168.1 50.4,173.5 C50.4,178.6 54.4,182.8 59.4,183.2 C53.2,186.1 48.8,192.4 48.8,199.8 L48.8,232.6 C48.8,236.8 52.1,240.1 56.2,240.3 L56.2,256.4 L56.2,256.4 C56.2,259.6 58.8,262.3 62.1,262.3 L74.2,262.3 C77.4,262.3 80.1,259.6 80.1,256.4 L80.1,240.3 L183.3,240.3 L183.3,256.4 L183.3,256.4 C183.3,259.6 185.9,262.3 189.2,262.3 L201.3,262.3 C204.5,262.3 207.2,259.6 207.2,256.4 L207.2,240.3 C211.3,240.2 214.6,236.8 214.6,232.6 L214.6,199.8 C214.8,192.4 210.5,186.1 204.2,183.2 L204.2,183.2 Z M80.6,147.9 C82.3,142.1 88.9,137.2 94.9,137.2 L168.9,137.2 C174.9,137.2 181.5,142.1 183.2,147.9 L190.7,174.5 L73,174.5 L80.6,147.9 L80.6,147.9 Z M74.5,215.9 C69.1,215.9 64.8,211.5 64.8,206.2 C64.8,200.8 69.2,196.5 74.5,196.5 C79.9,196.5 84.2,200.9 84.2,206.2 C84.3,211.5 79.9,215.9 74.5,215.9 L74.5,215.9 Z M157.7,226.7 L106.1,226.7 L106.1,213.7 L157.7,213.7 L157.7,226.7 L157.7,226.7 Z M179.5,206.2 C179.5,200.8 183.9,196.5 189.2,196.5 C194.6,196.5 198.9,200.9 198.9,206.2 C198.9,211.6 194.5,215.9 189.2,215.9 C183.9,215.9 179.5,211.5 179.5,206.2 L179.5,206.2 Z" id="Shape"></path>
                <polygon id="Shape" points="130.6 0 0.3 85.7 0.3 263.1 32.2 263.1 32.2 115.3 229.1 115.3 229.1 263.1 261 263.1 261 85.7"></polygon>
            </g>
        </g>
    </g>
</svg>