<?xml version="1.0" encoding="UTF-8" standalone="no"?>
<svg width="60px" height="57px" viewBox="0 0 60 57" version="1.1" xmlns="http://www.w3.org/2000/svg" xmlns:xlink="http://www.w3.org/1999/xlink">
    <!-- Generator: Sketch 39.1 (31720) - http://www.bohemiancoding.com/sketch -->
    <title>noun_570907_cc</title>
    <desc>Created with Sketch.</desc>
    <defs></defs>
    <g id="Page-1" stroke="none" stroke-width="1" fill="none" fill-rule="evenodd">
        <g id="noun_570907_cc" fill="#FFFFFF">
            <circle id="Oval" cx="16.0430303" cy="8.58606061" r="0.953939394"></circle>
            <ellipse id="Oval" cx="18.1636364" cy="12.0454545" rx="0.953939394" ry="0.953939394"></ellipse>
            <circle id="Oval" cx="8.56666667" cy="8.58606061" r="0.953939394"></circle>
            <circle id="Oval" cx="6.65939394" cy="12.0454545" r="0.953939394"></circle>
            <path d="M35.2648485,40.1412121 C34.0739394,38.9769697 32.6266667,38.3854545 30.9630303,38.3854545 C29.2527273,38.3854545 27.7787879,38.9775758 26.5818182,40.1412121 C25.3921212,41.3163636 24.7842424,42.7769697 24.7842424,44.4830303 C24.7842424,46.1472727 25.3890909,47.5969697 26.5818182,48.7872727 C27.7787879,49.9830303 29.249697,50.5909091 30.9630303,50.5909091 C32.6266667,50.5909091 34.0769697,49.9830303 35.2678788,48.7890909 C36.4593939,47.5975758 37.0648485,46.149697 37.0648485,44.4836364 C37.0624242,42.7751515 36.4587879,41.3121212 35.2648485,40.1412121 L35.2648485,40.1412121 Z M32.7733333,46.3024242 C32.2727273,46.8048485 31.6690909,47.0490909 30.9630303,47.0490909 C30.2569697,47.0490909 29.6545455,46.8042424 29.1490909,46.3024242 C28.6466667,45.7969697 28.3963636,45.1957576 28.3963636,44.4830303 C28.3963636,43.7830303 28.6466667,43.1824242 29.1490909,42.6781818 C29.6539394,42.1727273 30.2569697,41.9151515 30.9630303,41.9151515 C31.6690909,41.9151515 32.2727273,42.1727273 32.7733333,42.6781818 C33.2769697,43.1818182 33.5290909,43.7824242 33.5290909,44.4830303 C33.5290909,45.1957576 33.2769697,45.7975758 32.7733333,46.3024242 L32.7733333,46.3024242 Z" id="Shape"></path>
            <path d="M20.1690909,37.6181818 L20.1690909,34.7721212 L20.1690909,32.8612121 L20.1593939,32.8612121 L20.1593939,32.2163636 C20.1593939,29.9915152 22.12,28.189697 24.5375758,28.189697 L35.1066667,28.189697 L40.5624242,18.0769697 C41.2036364,17.009697 42.549697,16.6333333 43.5569697,16.6333333 L59.6993939,16.6333333 L59.6993939,19.9830303 L55.769697,19.9830303 C55.0866667,19.9830303 54.5363636,20.5327273 54.5363636,21.2169697 L54.5393939,27.8660606 L59.7,27.8915152 L59.7,44.0424242 L39.3660606,44.0345455 C39.3660606,44.0345455 39.6490909,41.2133333 37.8436364,38.8587879 C36.1945455,36.7084848 33.5278788,35.5424242 30.7751515,35.5424242 C28.5581818,35.5424242 26.6739394,36.1715152 24.8842424,37.6521212 C23.1012121,39.1387879 22.1290909,40.9387879 21.9787879,43.0515152 L20.2424242,43.0515152 C18.9860606,43.0515152 18.3539394,42.4187879 18.3539394,41.1666667 L18.3539394,37.6181818 L20.1690909,37.6181818 L20.1690909,37.6181818 Z M51.670303,27.8781818 L51.6642424,21.4587879 C51.6642424,20.4993939 51.1890909,20.0206061 50.229697,20.0206061 L44.049697,20.0206061 C43.4484848,20.0206061 43.0115152,20.1836364 42.6733333,20.7224242 L39.1909091,27.8781818 L51.670303,27.8781818 L51.670303,27.8781818 Z" id="Shape"></path>
            <path d="M14.4957576,52.1478788 L14.4957576,29.0751515 C20.7606061,27.5448485 25.1187879,18.8606061 25.1187879,12.8254545 C25.1187879,5.9 19.4854545,0.266666667 12.56,0.266666667 C5.63454545,0.266666667 0.000606060606,5.9 0.000606060606,12.8254545 C0.000606060606,18.8606061 4.35878788,27.5448485 10.6236364,29.0751515 L10.6236364,52.1478788 L1.9369697,52.1478788 L1.9369697,56.02 L59.6993939,56.02 L59.6993939,52.1478788 L14.4957576,52.1478788 L14.4957576,52.1478788 Z M4.04,14.7012121 C3.93272727,14.0581818 3.87272727,13.4278788 3.87272727,12.8254545 C3.87272727,8.03575758 7.76969697,4.13878788 12.5593939,4.13878788 C17.3490909,4.13878788 21.2466667,8.03575758 21.2466667,12.8254545 C21.2466667,13.4284848 21.1866667,14.0581818 21.0793939,14.7012121 L14.9478788,14.7012121 C14.9963636,14.5090909 15.0290909,14.3115152 15.0290909,14.1042424 C15.0290909,12.9945455 14.2921212,12.0666667 13.2842424,11.7557576 L13.2842424,6.03393939 L11.8357576,6.03393939 L11.8357576,11.7557576 C10.8278788,12.0672727 10.0909091,12.9945455 10.0909091,14.1042424 C10.0909091,14.3115152 10.1236364,14.5090909 10.1721212,14.7012121 L4.04,14.7012121 L4.04,14.7012121 Z" id="Shape"></path>
        </g>
    </g>
</svg>